# Blender v2.79 (sub 0) OBJ File: ''
# www.blender.org
mtllib default.mtl
o Cone
v 0.010418 -0.009435 -0.994978
v 0.010418 1.990565 0.005022
v 0.205509 -0.009435 -0.975763
v 0.393102 -0.009435 -0.918858
v 0.565989 -0.009435 -0.826448
v 0.717525 -0.009435 -0.702085
v 0.841888 -0.009435 -0.550548
v 0.934298 -0.009435 -0.377662
v 0.991204 -0.009435 -0.190069
v 1.010418 -0.009435 0.005022
v 0.991204 -0.009435 0.200112
v 0.934298 -0.009435 0.387705
v 0.841888 -0.009435 0.560592
v 0.717525 -0.009435 0.712129
v 0.565989 -0.009435 0.836491
v 0.393102 -0.009435 0.928901
v 0.205509 -0.009435 0.985807
v 0.010418 -0.009435 1.005022
v -0.184672 -0.009435 0.985807
v -0.372265 -0.009435 0.928901
v -0.545152 -0.009435 0.836491
v -0.696689 -0.009435 0.712128
v -0.821052 -0.009435 0.560591
v -0.913461 -0.009435 0.387704
v -0.970367 -0.009435 0.200111
v -0.989582 -0.009435 0.005021
v -0.970367 -0.009435 -0.190070
v -0.913461 -0.009435 -0.377663
v -0.821050 -0.009435 -0.550549
v -0.696687 -0.009435 -0.702086
v -0.545151 -0.009435 -0.826449
v -0.372264 -0.009435 -0.918858
v -0.184670 -0.009435 -0.975764
vt 0.000000 0.000000
vt 1.000000 0.000000
vt 1.000000 1.000000
vt 0.000000 0.000000
vt 1.000000 1.000000
vt 0.000000 0.000000
vt 1.000000 1.000000
vt 0.000000 0.000000
vt 1.000000 1.000000
vt 0.000000 0.000000
vt 1.000000 1.000000
vt 0.000000 0.000000
vt 1.000000 1.000000
vt 0.000000 0.000000
vt 1.000000 1.000000
vt 0.000000 0.000000
vt 1.000000 1.000000
vt 0.000000 0.000000
vt 1.000000 1.000000
vt 0.000000 0.000000
vt 1.000000 1.000000
vt 0.000000 0.000000
vt 1.000000 1.000000
vt 0.000000 0.000000
vt 1.000000 1.000000
vt 0.000000 0.000000
vt 1.000000 1.000000
vt 0.000000 0.000000
vt 1.000000 1.000000
vt 0.000000 0.000000
vt 1.000000 1.000000
vt 0.000000 0.000000
vt 1.000000 1.000000
vt 0.000000 0.000000
vt 1.000000 1.000000
vt 0.000000 0.000000
vt 1.000000 1.000000
vt 0.000000 0.000000
vt 1.000000 1.000000
vt 0.000000 0.000000
vt 1.000000 1.000000
vt 0.000000 0.000000
vt 1.000000 1.000000
vt 0.000000 0.000000
vt 1.000000 1.000000
vt 0.000000 0.000000
vt 1.000000 1.000000
vt 0.000000 0.000000
vt 1.000000 1.000000
vt 0.000000 0.000000
vt 1.000000 1.000000
vt 0.000000 0.000000
vt 1.000000 1.000000
vt 0.000000 0.000000
vt 1.000000 1.000000
vt 0.000000 0.000000
vt 1.000000 1.000000
vt 0.000000 0.000000
vt 1.000000 1.000000
vt 0.000000 0.000000
vt 1.000000 1.000000
vt 0.000000 0.000000
vt 1.000000 1.000000
vt 0.000000 0.000000
vt 1.000000 1.000000
vt 0.597545 0.009607
vt 0.009607 0.402455
vt 0.402456 0.990393
vt 0.500000 1.000000
vt 0.597545 0.990393
vt 0.691342 0.961940
vt 0.777785 0.915735
vt 0.853553 0.853553
vt 0.990393 0.597545
vt 0.915735 0.777785
vt 0.961940 0.691342
vt 1.000000 0.500000
vt 0.915735 0.222215
vt 0.990393 0.402455
vt 0.961940 0.308658
vt 0.853553 0.146447
vt 0.777785 0.084265
vt 0.691342 0.038060
vt 0.500000 0.000000
vt 0.222215 0.084265
vt 0.402455 0.009607
vt 0.308658 0.038060
vt 0.146446 0.146447
vt 0.084265 0.222215
vt 0.038060 0.308659
vt 0.000000 0.500000
vt 0.009607 0.597546
vt 0.038060 0.691342
vt 0.084266 0.777786
vt 0.146447 0.853554
vt 0.222215 0.915735
vt 0.308659 0.961940
vn 0.0000 -0.5033 -0.8641
vn 0.0000 1.0000 0.0000
vn 0.1686 -0.5033 -0.8475
vn 0.3307 -0.5033 -0.7983
vn 0.4801 -0.5033 -0.7185
vn 0.6110 -0.5033 -0.6110
vn 0.7185 -0.5033 -0.4801
vn 0.7983 -0.5033 -0.3307
vn 0.8475 -0.5033 -0.1686
vn 0.8641 -0.5033 0.0000
vn 0.8475 -0.5033 0.1686
vn 0.7983 -0.5033 0.3307
vn 0.7185 -0.5033 0.4801
vn 0.6110 -0.5033 0.6110
vn 0.4801 -0.5033 0.7185
vn 0.3307 -0.5033 0.7983
vn 0.1686 -0.5033 0.8475
vn 0.0000 -0.5033 0.8641
vn -0.1686 -0.5033 0.8475
vn -0.3307 -0.5033 0.7983
vn -0.4801 -0.5033 0.7185
vn -0.6110 -0.5033 0.6110
vn -0.7185 -0.5033 0.4801
vn -0.7983 -0.5033 0.3307
vn -0.8475 -0.5033 0.1686
vn -0.8641 -0.5033 0.0000
vn -0.8475 -0.5033 -0.1686
vn -0.7983 -0.5033 -0.3307
vn -0.7185 -0.5033 -0.4801
vn -0.6110 -0.5033 -0.6110
vn -0.4801 -0.5033 -0.7185
vn -0.3307 -0.5033 -0.7983
vn -0.1686 -0.5033 -0.8475
usemtl None
s 1
f 1/1/1 2/2/2 3/3/3
f 3/4/3 2/2/2 4/5/4
f 4/6/4 2/2/2 5/7/5
f 5/8/5 2/2/2 6/9/6
f 6/10/6 2/2/2 7/11/7
f 7/12/7 2/2/2 8/13/8
f 8/14/8 2/2/2 9/15/9
f 9/16/9 2/2/2 10/17/10
f 10/18/10 2/2/2 11/19/11
f 11/20/11 2/2/2 12/21/12
f 12/22/12 2/2/2 13/23/13
f 13/24/13 2/2/2 14/25/14
f 14/26/14 2/2/2 15/27/15
f 15/28/15 2/2/2 16/29/16
f 16/30/16 2/2/2 17/31/17
f 17/32/17 2/2/2 18/33/18
f 18/34/18 2/2/2 19/35/19
f 19/36/19 2/2/2 20/37/20
f 20/38/20 2/2/2 21/39/21
f 21/40/21 2/2/2 22/41/22
f 22/42/22 2/2/2 23/43/23
f 23/44/23 2/2/2 24/45/24
f 24/46/24 2/2/2 25/47/25
f 25/48/25 2/2/2 26/49/26
f 26/50/26 2/2/2 27/51/27
f 27/52/27 2/2/2 28/53/28
f 28/54/28 2/2/2 29/55/29
f 29/56/29 2/2/2 30/57/30
f 30/58/30 2/2/2 31/59/31
f 31/60/31 2/2/2 32/61/32
f 32/62/32 2/2/2 33/63/33
f 33/64/33 2/2/2 1/65/1
f 17/66/17 25/67/25 33/68/33
f 33/68/33 1/69/1 3/70/3
f 3/70/3 4/71/4 5/72/5
f 5/72/5 6/73/6 9/74/9
f 7/75/7 8/76/8 9/74/9
f 9/74/9 10/77/10 13/78/13
f 11/79/11 12/80/12 13/78/13
f 13/78/13 14/81/14 17/66/17
f 15/82/15 16/83/16 17/66/17
f 17/66/17 18/84/18 21/85/21
f 19/86/19 20/87/20 21/85/21
f 21/85/21 22/88/22 23/89/23
f 23/89/23 24/90/24 25/67/25
f 25/67/25 26/91/26 27/92/27
f 27/92/27 28/93/28 25/67/25
f 29/94/29 30/95/30 33/68/33
f 31/96/31 32/97/32 33/68/33
f 33/68/33 3/70/3 5/72/5
f 6/73/6 7/75/7 9/74/9
f 10/77/10 11/79/11 13/78/13
f 14/81/14 15/82/15 17/66/17
f 18/84/18 19/86/19 21/85/21
f 21/85/21 23/89/23 25/67/25
f 25/67/25 28/93/28 29/94/29
f 30/95/30 31/96/31 33/68/33
f 33/68/33 5/72/5 9/74/9
f 9/74/9 13/78/13 17/66/17
f 17/66/17 21/85/21 25/67/25
f 25/67/25 29/94/29 33/68/33
f 33/68/33 9/74/9 17/66/17
